<svg version="1.1" id="Layer_1" xmlns="http://www.w3.org/2000/svg" xmlns:xlink="http://www.w3.org/1999/xlink" x="0px" y="0px"
	 width="100%" viewBox="0 0 512 512" enable-background="new 0 0 512 512" xml:space="preserve">
<path fill="#000000" opacity="1.000000" stroke="none" 
	d="
M0.999999,250.000000 
	C1.000000,167.070694 1.000000,84.141388 1.000000,1.000000 
	C89.020782,1.000000 177.041733,1.000000 265.459534,1.360591 
	C265.028046,2.179496 264.251343,2.842805 263.363861,3.066326 
	C236.506943,9.830540 216.849442,25.632498 203.848190,50.014019 
	C203.064545,51.483631 200.588684,52.775124 198.830673,52.870728 
	C192.519272,53.213963 186.177994,53.008480 179.848007,53.008774 
	C166.157059,53.009411 166.081482,53.104214 165.991150,66.982445 
	C165.973465,69.698845 166.643265,72.467613 162.907120,73.986687 
	C159.080643,75.542480 156.151505,75.930367 153.538071,72.130569 
	C152.424316,70.511246 150.771973,69.258209 149.342834,67.860756 
	C145.281097,63.889046 142.750259,63.822117 138.776230,67.756493 
	C131.673660,74.788216 124.632454,81.881920 117.562851,88.946976 
	C106.592422,99.910339 106.698967,98.177834 117.644890,109.131409 
	C117.880386,109.367073 118.085480,109.646881 118.355453,109.832245 
	C122.168526,112.450325 120.106781,115.556824 119.282341,118.720802 
	C118.416832,122.042374 116.062378,122.036995 113.475296,122.015427 
	C109.977493,121.986252 106.479004,122.003372 102.981094,122.033318 
	C99.731644,122.061127 98.040031,123.730911 98.035835,126.979774 
	C98.018196,140.639130 98.022736,154.298508 98.030067,167.957886 
	C98.031982,171.528702 99.982529,173.021286 103.407608,172.989059 
	C107.071953,172.954559 110.746025,173.151001 114.398949,172.945709 
	C117.673256,172.761703 119.334511,173.931473 120.784325,177.048340 
	C122.373405,180.464630 120.607079,181.947601 118.695091,183.828049 
	C116.676147,185.813660 114.668007,187.810944 112.687675,189.834961 
	C108.112823,194.510712 108.059578,196.491486 112.609947,201.077545 
	C121.292091,209.827881 130.012604,218.540451 138.759567,227.226028 
	C142.678909,231.117874 146.514084,230.654892 150.046722,226.222504 
	C152.107437,223.636948 154.170120,220.886017 156.791870,218.979523 
	C158.276123,217.900192 161.100235,217.753784 162.930786,218.361725 
	C164.279831,218.809784 165.689636,221.085312 165.859741,222.676224 
	C166.282501,226.629684 165.986786,230.657547 166.026108,234.655090 
	C166.066559,238.768295 167.612732,241.114090 172.295303,241.050781 
	C185.452606,240.872940 198.615189,240.884186 211.772873,241.047592 
	C216.125458,241.101639 217.858032,239.032822 217.952438,235.085648 
	C218.048019,231.089905 217.685516,227.056061 218.134369,223.108337 
	C218.333145,221.359955 219.692520,218.974213 221.151932,218.354874 
	C222.610931,217.735672 225.271851,218.416626 226.665131,219.489578 
	C229.677460,221.809311 232.129990,224.839462 234.968979,227.404785 
	C238.881241,230.939896 241.590912,230.854477 245.285110,227.183990 
	C253.793121,218.730591 262.265442,210.241196 270.733124,201.747314 
	C276.199951,196.263626 276.162628,194.755112 270.572418,189.108047 
	C267.628662,186.134369 264.695709,183.149994 261.757874,180.170441 
	C262.051605,179.646957 262.345367,179.123459 262.639130,178.599976 
	C264.661133,178.858978 266.683685,179.114014 268.705078,179.377869 
	C272.805450,179.913055 276.897339,180.840729 281.006561,180.923798 
	C298.642853,181.280304 315.244812,177.290314 330.462189,168.202621 
	C344.738098,159.677185 355.992462,148.193298 363.787506,133.435074 
	C371.413300,118.997238 374.532349,103.682999 374.118713,87.300209 
	C373.535797,64.212219 364.836670,44.644672 349.381592,28.131395 
	C337.328308,15.252890 322.082367,7.260204 304.925934,2.985564 
	C303.852356,2.718078 302.970856,1.679713 302.000000,0.999997 
	C372.282196,1.000000 442.564423,1.000000 513.000000,1.000000 
	C513.000000,131.020859 513.000000,261.041779 512.649353,391.521362 
	C502.547607,384.838531 492.753479,377.754883 483.056702,370.540375 
	C471.877686,362.223053 460.861328,353.684265 449.579590,345.510437 
	C447.672791,344.128906 444.338928,342.977142 442.454895,343.721100 
	C439.779968,344.777405 438.638794,344.033386 436.914185,342.482635 
	C428.053955,334.515442 419.140228,326.606750 410.179718,318.752319 
	C397.336639,307.494598 384.346466,296.403046 371.589874,285.048737 
	C361.313721,275.902222 350.498932,267.428711 336.803589,264.594818 
	C325.500336,262.255890 313.904327,260.611908 302.383453,260.205170 
	C282.590637,259.506348 262.755280,260.006256 242.937775,260.021423 
	C241.276840,260.022675 239.576355,259.957764 237.961044,260.269623 
	C211.263412,265.424194 184.571350,270.608002 157.889557,275.843933 
	C146.357269,278.106995 146.458099,278.114929 140.267426,267.632294 
	C131.654022,253.047226 114.216537,243.302872 96.881653,246.818893 
	C94.021881,247.398941 92.039261,246.684067 90.299500,243.856277 
	C83.504189,232.811203 74.165031,225.045090 61.045353,222.511429 
	C49.142738,220.212784 32.414654,224.836548 25.995022,235.328766 
	C24.951468,237.034363 22.443642,237.918167 20.505589,238.987885 
	C15.515089,241.742371 10.446598,244.355347 5.448685,247.096725 
	C3.900690,247.945801 2.479337,249.025757 0.999999,250.000000 
z"/>
<path fill="#000000" opacity="1.000000" stroke="none" 
	d="
M384.000000,513.000000 
	C256.421448,513.000000 128.842880,513.000000 1.000000,513.000000 
	C1.000000,430.312073 1.000000,347.623901 1.353506,264.521088 
	C2.826360,266.453979 3.955724,268.796722 5.063533,271.149658 
	C18.439669,299.559998 31.389635,328.181793 45.350880,356.301575 
	C53.260265,372.232117 66.076187,383.981354 82.898590,390.288452 
	C91.673225,393.578339 100.990021,395.644836 110.223175,397.429871 
	C120.613945,399.438721 131.168625,400.670410 141.697998,401.818542 
	C143.349670,401.998627 145.244949,399.944611 147.472351,398.958130 
	C152.264252,399.381165 156.611420,399.769684 161.027405,400.507751 
	C163.112808,402.552277 164.944290,405.392273 167.176559,405.753082 
	C179.920883,407.813263 192.746262,409.404266 205.571243,410.925995 
	C226.450287,413.403381 247.348434,415.720764 268.241943,418.075134 
	C288.972076,420.411102 309.725342,422.559692 330.419769,425.175751 
	C333.755951,425.597504 337.320801,427.449280 339.945831,429.639679 
	C347.314880,435.788666 354.188629,442.527283 361.388062,448.885803 
	C363.653564,450.886627 363.584686,452.443085 361.869873,454.769104 
	C355.860474,462.920380 350.046967,471.215851 344.135040,479.439270 
	C341.020569,483.771423 341.497742,486.851929 345.838776,489.373596 
	C354.737152,494.542694 363.733490,499.547852 372.542694,504.863708 
	C376.542023,507.277130 380.191711,510.269989 384.000000,513.000000 
z"/>
<path fill="#30302E" opacity="1.000000" stroke="none" 
	d="
M384.449982,513.000000 
	C380.191711,510.269989 376.542023,507.277130 372.542694,504.863708 
	C363.733490,499.547852 354.737152,494.542694 345.838776,489.373596 
	C341.497742,486.851929 341.020569,483.771423 344.135040,479.439270 
	C350.046967,471.215851 355.860474,462.920380 361.869873,454.769104 
	C363.584686,452.443085 363.653564,450.886627 361.388062,448.885803 
	C354.188629,442.527283 347.314880,435.788666 339.945831,429.639679 
	C337.320801,427.449280 333.755951,425.597504 330.419769,425.175751 
	C309.725342,422.559692 288.972076,420.411102 268.241943,418.075134 
	C247.348434,415.720764 226.450287,413.403381 205.571243,410.925995 
	C192.746262,409.404266 179.920883,407.813263 167.176559,405.753082 
	C164.944290,405.392273 163.112808,402.552277 161.357941,400.347443 
	C163.222137,396.452179 165.887741,395.738647 169.456329,396.166168 
	C220.047684,402.227295 270.608612,408.589081 321.276794,413.930511 
	C334.355652,415.309235 345.269928,418.726257 353.999084,428.811279 
	C357.897675,433.315430 362.760956,436.987854 367.218109,441.002625 
	C368.151886,441.843781 369.224609,442.530701 370.440186,443.444183 
	C391.927521,413.387665 413.180328,383.659241 434.491241,353.849548 
	C432.546448,352.096161 431.083801,350.745087 429.587097,349.432892 
	C406.407471,329.109894 383.137604,308.888702 360.079468,288.428864 
	C349.754578,279.267426 337.843750,272.925049 324.308502,272.239746 
	C296.052887,270.809113 267.727203,270.760223 239.429779,270.168518 
	C238.610748,270.151398 237.781281,270.390503 236.964355,270.549530 
	C207.236374,276.335999 177.522415,282.196198 147.769150,287.849487 
	C142.821701,288.789520 141.103897,291.582153 141.029877,296.148315 
	C140.827820,308.611359 150.985291,322.626526 163.218948,324.827942 
	C172.816238,326.555023 182.781509,327.576721 192.488312,327.074890 
	C212.253296,326.052979 231.954773,323.797272 251.680939,322.033569 
	C255.064178,321.731079 258.839722,321.031189 259.409424,325.828033 
	C259.918182,330.112061 256.671387,330.935028 253.276611,331.328156 
	C240.873978,332.764465 228.504501,334.584259 216.069168,335.617157 
	C199.132080,337.023926 182.081863,338.270020 165.244797,334.979004 
	C139.774918,330.000610 114.381699,324.618835 89.025192,319.090607 
	C86.750710,318.594727 84.215355,316.163788 83.104950,313.971222 
	C76.189453,300.316254 69.762177,286.414734 62.913334,272.724915 
	C60.620121,268.141083 58.007542,263.576355 54.775932,259.629272 
	C45.318798,248.078247 30.432295,244.514465 17.882391,250.308014 
	C10.554183,253.691010 9.381060,255.666138 12.701005,262.915955 
	C26.275015,292.557770 39.526474,322.373413 54.116550,351.514282 
	C63.291939,369.840363 79.157143,381.166321 99.429222,385.294006 
	C112.792656,388.014954 126.323555,389.922791 139.795151,392.097565 
	C143.857620,392.753387 147.519714,393.565765 147.027588,398.923584 
	C145.244949,399.944611 143.349670,401.998627 141.697998,401.818542 
	C131.168625,400.670410 120.613945,399.438721 110.223175,397.429871 
	C100.990021,395.644836 91.673225,393.578339 82.898590,390.288452 
	C66.076187,383.981354 53.260265,372.232117 45.350880,356.301575 
	C31.389635,328.181793 18.439669,299.559998 5.063533,271.149658 
	C3.955724,268.796722 2.826360,266.453979 1.353506,264.053223 
	C1.000000,259.643097 1.000000,255.286194 0.999999,250.464645 
	C2.479337,249.025757 3.900690,247.945801 5.448685,247.096725 
	C10.446598,244.355347 15.515089,241.742371 20.505589,238.987885 
	C22.443642,237.918167 24.951468,237.034363 25.995022,235.328766 
	C32.414654,224.836548 49.142738,220.212784 61.045353,222.511429 
	C74.165031,225.045090 83.504189,232.811203 90.299500,243.856277 
	C92.039261,246.684067 94.021881,247.398941 96.881653,246.818893 
	C114.216537,243.302872 131.654022,253.047226 140.267426,267.632294 
	C146.458099,278.114929 146.357269,278.106995 157.889557,275.843933 
	C184.571350,270.608002 211.263412,265.424194 237.961044,260.269623 
	C239.576355,259.957764 241.276840,260.022675 242.937775,260.021423 
	C262.755280,260.006256 282.590637,259.506348 302.383453,260.205170 
	C313.904327,260.611908 325.500336,262.255890 336.803589,264.594818 
	C350.498932,267.428711 361.313721,275.902222 371.589874,285.048737 
	C384.346466,296.403046 397.336639,307.494598 410.179718,318.752319 
	C419.140228,326.606750 428.053955,334.515442 436.914185,342.482635 
	C438.638794,344.033386 439.779968,344.777405 442.454895,343.721100 
	C444.338928,342.977142 447.672791,344.128906 449.579590,345.510437 
	C460.861328,353.684265 471.877686,362.223053 483.056702,370.540375 
	C492.753479,377.754883 502.547607,384.838531 512.649353,391.990021 
	C513.000000,394.370575 513.000000,396.741119 512.651917,399.555878 
	C511.199799,400.336365 510.095764,400.672699 508.654999,400.906525 
	C506.456482,399.735931 504.466034,398.841522 502.753052,397.572510 
	C487.382965,386.185974 472.065674,374.728088 456.722961,363.304474 
	C453.049194,360.569122 449.338470,357.883362 445.441345,355.025665 
	C414.888611,397.764465 384.664093,440.044189 354.190735,482.671967 
	C365.812103,489.408630 376.957458,495.674042 387.859589,502.337280 
	C390.341156,503.853973 391.981323,506.747345 393.866882,509.326630 
	C393.483368,510.764130 393.241699,511.882050 393.000000,513.000000 
	C390.299988,513.000000 387.599976,513.000000 384.449982,513.000000 
M99.395721,281.121979 
	C94.323120,271.775116 89.198486,262.455963 84.194054,253.072754 
	C80.035904,245.276306 74.821327,238.541977 66.590088,234.679474 
	C56.394196,229.895081 43.532852,231.541763 36.812397,238.639969 
	C53.747818,241.995239 63.987400,253.059509 71.063652,267.845520 
	C77.232185,280.734802 83.463669,293.594452 89.766441,306.418488 
	C90.523140,307.958130 91.685524,310.105255 93.024696,310.420349 
	C101.484604,312.410980 110.047455,313.964142 119.520638,315.849701 
	C112.571556,303.832611 106.183609,292.785889 99.395721,281.121979 
M121.624153,261.801697 
	C114.178108,256.639099 106.139717,254.736649 96.773506,256.947662 
	C97.900429,259.095795 98.688553,260.732819 99.593513,262.302429 
	C109.404808,279.319855 119.378571,296.246155 128.960724,313.391388 
	C131.445175,317.836792 134.525711,319.875183 139.596405,319.579834 
	C138.227966,317.054840 136.774796,314.800079 135.729614,312.369904 
	C131.593170,302.752014 128.966339,293.122284 135.879623,283.482117 
	C136.430817,282.713470 136.278961,280.777710 135.676407,279.950775 
	C131.305695,273.952087 126.735153,268.099030 121.624153,261.801697 
z"/>
<path fill="#2F302E" opacity="1.000000" stroke="none" 
	d="
M301.531342,0.999997 
	C302.970856,1.679713 303.852356,2.718078 304.925934,2.985564 
	C322.082367,7.260204 337.328308,15.252890 349.381592,28.131395 
	C364.836670,44.644672 373.535797,64.212219 374.118713,87.300209 
	C374.532349,103.682999 371.413300,118.997238 363.787506,133.435074 
	C355.992462,148.193298 344.738098,159.677185 330.462189,168.202621 
	C315.244812,177.290314 298.642853,181.280304 281.006561,180.923798 
	C276.897339,180.840729 272.805450,179.913055 268.705078,179.377869 
	C266.683685,179.114014 264.661133,178.858978 262.639130,178.599976 
	C262.345367,179.123459 262.051605,179.646957 261.757874,180.170441 
	C264.695709,183.149994 267.628662,186.134369 270.572418,189.108047 
	C276.162628,194.755112 276.199951,196.263626 270.733124,201.747314 
	C262.265442,210.241196 253.793121,218.730591 245.285110,227.183990 
	C241.590912,230.854477 238.881241,230.939896 234.968979,227.404785 
	C232.129990,224.839462 229.677460,221.809311 226.665131,219.489578 
	C225.271851,218.416626 222.610931,217.735672 221.151932,218.354874 
	C219.692520,218.974213 218.333145,221.359955 218.134369,223.108337 
	C217.685516,227.056061 218.048019,231.089905 217.952438,235.085648 
	C217.858032,239.032822 216.125458,241.101639 211.772873,241.047592 
	C198.615189,240.884186 185.452606,240.872940 172.295303,241.050781 
	C167.612732,241.114090 166.066559,238.768295 166.026108,234.655090 
	C165.986786,230.657547 166.282501,226.629684 165.859741,222.676224 
	C165.689636,221.085312 164.279831,218.809784 162.930786,218.361725 
	C161.100235,217.753784 158.276123,217.900192 156.791870,218.979523 
	C154.170120,220.886017 152.107437,223.636948 150.046722,226.222504 
	C146.514084,230.654892 142.678909,231.117874 138.759567,227.226028 
	C130.012604,218.540451 121.292091,209.827881 112.609947,201.077545 
	C108.059578,196.491486 108.112823,194.510712 112.687675,189.834961 
	C114.668007,187.810944 116.676147,185.813660 118.695091,183.828049 
	C120.607079,181.947601 122.373405,180.464630 120.784325,177.048340 
	C119.334511,173.931473 117.673256,172.761703 114.398949,172.945709 
	C110.746025,173.151001 107.071953,172.954559 103.407608,172.989059 
	C99.982529,173.021286 98.031982,171.528702 98.030067,167.957886 
	C98.022736,154.298508 98.018196,140.639130 98.035835,126.979774 
	C98.040031,123.730911 99.731644,122.061127 102.981094,122.033318 
	C106.479004,122.003372 109.977493,121.986252 113.475296,122.015427 
	C116.062378,122.036995 118.416832,122.042374 119.282341,118.720802 
	C120.106781,115.556824 122.168526,112.450325 118.355453,109.832245 
	C118.085480,109.646881 117.880386,109.367073 117.644890,109.131409 
	C106.698967,98.177834 106.592422,99.910339 117.562851,88.946976 
	C124.632454,81.881920 131.673660,74.788216 138.776230,67.756493 
	C142.750259,63.822117 145.281097,63.889046 149.342834,67.860756 
	C150.771973,69.258209 152.424316,70.511246 153.538071,72.130569 
	C156.151505,75.930367 159.080643,75.542480 162.907120,73.986687 
	C166.643265,72.467613 165.973465,69.698845 165.991150,66.982445 
	C166.081482,53.104214 166.157059,53.009411 179.848007,53.008774 
	C186.177994,53.008480 192.519272,53.213963 198.830673,52.870728 
	C200.588684,52.775124 203.064545,51.483631 203.848190,50.014019 
	C216.849442,25.632498 236.506943,9.830540 263.363861,3.066326 
	C264.251343,2.842805 265.028046,2.179496 265.928192,1.360591 
	C277.687561,1.000000 289.375122,1.000000 301.531342,0.999997 
M208.013016,66.603073 
	C192.401474,118.877655 229.996414,170.653336 283.787354,170.959396 
	C331.496796,171.230835 368.375916,130.893173 364.167755,83.040848 
	C360.135712,37.191296 316.606537,3.613973 271.341705,11.819335 
	C239.951538,17.509571 219.156647,36.026829 208.013016,66.603073 
M213.028671,210.538925 
	C215.954971,209.350952 218.986069,208.366043 221.781021,206.923569 
	C225.269379,205.123230 228.099960,205.483505 230.687790,208.454086 
	C233.634598,211.836746 236.669495,215.142700 239.973389,218.824417 
	C244.359451,214.319672 247.936859,210.608826 251.555801,206.938919 
	C255.240067,203.202774 258.965179,199.506897 263.196289,195.268555 
	C259.596863,191.936523 256.684937,188.937988 253.458710,186.327911 
	C249.019043,182.736115 251.295700,178.971283 253.162643,175.124786 
	C247.125198,172.135635 241.419846,169.310913 235.720810,166.489304 
	C222.831558,192.246887 197.554794,198.644424 178.436844,192.936584 
	C157.926590,186.813049 143.417252,166.794312 144.471359,145.817139 
	C145.033463,134.631119 148.711533,124.644676 156.136856,116.195724 
	C166.321487,104.607071 179.400269,99.476906 193.956924,99.747429 
	C195.290085,87.268311 196.569382,75.293297 197.831055,63.483158 
	C191.117508,63.483158 183.716156,63.483158 176.052505,63.483158 
	C176.052505,67.542778 175.922607,71.202812 176.089508,74.849266 
	C176.252243,78.404999 174.674332,80.350906 171.384308,81.520004 
	C167.477203,82.908371 163.647308,84.555702 159.896561,86.329018 
	C156.931229,87.731003 154.414246,87.554375 152.268555,85.030746 
	C149.703430,82.013817 147.226425,78.921967 145.193130,76.448708 
	C136.750458,84.931473 129.509506,92.206810 121.319771,100.435432 
	C122.662735,101.409256 124.611961,102.477798 126.129417,103.981949 
	C133.222794,111.013107 134.110382,110.231819 129.389023,120.040390 
	C128.384872,122.126518 127.642792,124.376671 127.073608,126.625565 
	C126.186203,130.131775 123.972900,131.487839 120.516296,131.425568 
	C116.416542,131.351715 112.314453,131.408203 108.237671,131.408203 
	C108.237671,142.407684 108.237671,152.638794 108.237671,163.180878 
	C110.444107,163.180878 112.299889,163.429489 114.066895,163.138657 
	C122.585625,161.736633 128.188751,164.540878 129.977097,173.502228 
	C130.292252,175.081512 131.288422,176.554337 132.109177,177.997208 
	C133.858810,181.073059 133.366776,183.675858 130.767792,186.029404 
	C127.481232,189.005554 124.258827,192.052567 121.225441,194.867920 
	C129.294510,202.905746 136.581680,210.164719 144.680069,218.231750 
	C146.108597,216.465134 147.880157,214.462112 149.442169,212.307205 
	C154.039490,205.964890 159.406662,203.898193 166.341141,208.829163 
	C167.385742,209.571960 168.788284,209.895538 170.075806,210.197311 
	C174.492004,211.232391 176.448730,213.781708 176.092102,218.458008 
	C175.768982,222.694595 176.023819,226.975281 176.023819,231.349823 
	C187.016769,231.349823 197.263702,231.349823 207.964096,231.349823 
	C207.964096,226.397720 208.049622,221.763855 207.934998,217.134964 
	C207.854324,213.877182 208.982346,211.642456 213.028671,210.538925 
M176.168030,181.554184 
	C178.376633,182.287460 180.559692,183.111801 182.797928,183.739349 
	C198.383514,188.109283 216.378113,180.446518 224.361282,166.447983 
	C226.697144,162.352051 226.756729,159.622345 222.957428,156.296631 
	C211.067474,145.888763 203.197906,132.788986 198.397781,117.771286 
	C195.824844,109.721611 193.136475,108.320053 184.600906,110.333061 
	C182.826202,110.751610 181.087723,111.369415 179.380402,112.020851 
	C163.467255,118.092529 154.594604,130.996674 154.340179,146.530121 
	C154.090378,161.781250 161.446976,173.908600 176.168030,181.554184 
z"/>
<path fill="#000000" opacity="1.000000" stroke="none" 
	d="
M393.468689,513.000000 
	C393.241699,511.882050 393.483368,510.764130 394.334534,509.323700 
	C432.869049,509.001221 470.794037,509.001221 508.991760,509.001221 
	C508.991760,472.609589 508.991760,436.809326 508.991760,401.009033 
	C510.095764,400.672699 511.199799,400.336365 512.651917,400.000031 
	C513.000000,437.595825 513.000000,475.191650 513.000000,513.000000 
	C473.312683,513.000000 433.625000,513.000000 393.468689,513.000000 
z"/>
<path fill="#F7AF7F" opacity="1.000000" stroke="none" 
	d="
M147.472351,398.958130 
	C147.519714,393.565765 143.857620,392.753387 139.795151,392.097565 
	C126.323555,389.922791 112.792656,388.014954 99.429222,385.294006 
	C79.157143,381.166321 63.291939,369.840363 54.116550,351.514282 
	C39.526474,322.373413 26.275015,292.557770 12.701005,262.915955 
	C9.381060,255.666138 10.554183,253.691010 17.882391,250.308014 
	C30.432295,244.514465 45.318798,248.078247 54.775932,259.629272 
	C58.007542,263.576355 60.620121,268.141083 62.913334,272.724915 
	C69.762177,286.414734 76.189453,300.316254 83.104950,313.971222 
	C84.215355,316.163788 86.750710,318.594727 89.025192,319.090607 
	C114.381699,324.618835 139.774918,330.000610 165.244797,334.979004 
	C182.081863,338.270020 199.132080,337.023926 216.069168,335.617157 
	C228.504501,334.584259 240.873978,332.764465 253.276611,331.328156 
	C256.671387,330.935028 259.918182,330.112061 259.409424,325.828033 
	C258.839722,321.031189 255.064178,321.731079 251.680939,322.033569 
	C231.954773,323.797272 212.253296,326.052979 192.488312,327.074890 
	C182.781509,327.576721 172.816238,326.555023 163.218948,324.827942 
	C150.985291,322.626526 140.827820,308.611359 141.029877,296.148315 
	C141.103897,291.582153 142.821701,288.789520 147.769150,287.849487 
	C177.522415,282.196198 207.236374,276.335999 236.964355,270.549530 
	C237.781281,270.390503 238.610748,270.151398 239.429779,270.168518 
	C267.727203,270.760223 296.052887,270.809113 324.308502,272.239746 
	C337.843750,272.925049 349.754578,279.267426 360.079468,288.428864 
	C383.137604,308.888702 406.407471,329.109894 429.587097,349.432892 
	C431.083801,350.745087 432.546448,352.096161 434.491241,353.849548 
	C413.180328,383.659241 391.927521,413.387665 370.440186,443.444183 
	C369.224609,442.530701 368.151886,441.843781 367.218109,441.002625 
	C362.760956,436.987854 357.897675,433.315430 353.999084,428.811279 
	C345.269928,418.726257 334.355652,415.309235 321.276794,413.930511 
	C270.608612,408.589081 220.047684,402.227295 169.456329,396.166168 
	C165.887741,395.738647 163.222137,396.452179 161.289108,399.997925 
	C156.611420,399.769684 152.264252,399.381165 147.472351,398.958130 
z"/>
<path fill="#67CADD" opacity="1.000000" stroke="none" 
	d="
M508.654999,400.906555 
	C508.991760,436.809326 508.991760,472.609589 508.991760,509.001221 
	C470.794037,509.001221 432.869049,509.001221 394.476410,509.004150 
	C391.981323,506.747345 390.341156,503.853973 387.859589,502.337280 
	C376.957458,495.674042 365.812103,489.408630 354.190735,482.671967 
	C384.664093,440.044189 414.888611,397.764465 445.441345,355.025665 
	C449.338470,357.883362 453.049194,360.569122 456.722961,363.304474 
	C472.065674,374.728088 487.382965,386.185974 502.753052,397.572510 
	C504.466034,398.841522 506.456482,399.735931 508.654999,400.906555 
z"/>
<path fill="#F5AD7E" opacity="1.000000" stroke="none" 
	d="
M99.595688,281.430573 
	C106.183609,292.785889 112.571556,303.832611 119.520638,315.849701 
	C110.047455,313.964142 101.484604,312.410980 93.024696,310.420349 
	C91.685524,310.105255 90.523140,307.958130 89.766441,306.418488 
	C83.463669,293.594452 77.232185,280.734802 71.063652,267.845520 
	C63.987400,253.059509 53.747818,241.995239 36.812397,238.639969 
	C43.532852,231.541763 56.394196,229.895081 66.590088,234.679474 
	C74.821327,238.541977 80.035904,245.276306 84.194054,253.072754 
	C89.198486,262.455963 94.323120,271.775116 99.595688,281.430573 
z"/>
<path fill="#F4AC7D" opacity="1.000000" stroke="none" 
	d="
M121.925995,262.000793 
	C126.735153,268.099030 131.305695,273.952087 135.676407,279.950775 
	C136.278961,280.777710 136.430817,282.713470 135.879623,283.482117 
	C128.966339,293.122284 131.593170,302.752014 135.729614,312.369904 
	C136.774796,314.800079 138.227966,317.054840 139.596405,319.579834 
	C134.525711,319.875183 131.445175,317.836792 128.960724,313.391388 
	C119.378571,296.246155 109.404808,279.319855 99.593513,262.302429 
	C98.688553,260.732819 97.900429,259.095795 96.773506,256.947662 
	C106.139717,254.736649 114.178108,256.639099 121.925995,262.000793 
z"/>
<path fill="#FECD57" opacity="1.000000" stroke="none" 
	d="
M208.106659,66.215240 
	C219.156647,36.026829 239.951538,17.509571 271.341705,11.819335 
	C316.606537,3.613973 360.135712,37.191296 364.167755,83.040848 
	C368.375916,130.893173 331.496796,171.230835 283.787354,170.959396 
	C229.996414,170.653336 192.401474,118.877655 208.106659,66.215240 
M300.221069,100.017181 
	C306.434326,103.730408 308.674530,108.532372 306.978271,114.501320 
	C305.456848,119.854912 300.925781,122.984428 294.360931,123.047195 
	C287.362915,123.114113 280.363556,123.097343 273.365173,123.054634 
	C265.937195,123.009308 262.904449,120.598991 261.434174,113.135712 
	C260.819916,110.017776 259.396942,108.060524 256.207001,108.415337 
	C252.675201,108.808174 251.814514,111.410126 252.028168,114.640228 
	C252.590652,123.144730 259.308685,130.699860 267.985382,132.105194 
	C271.710754,132.708542 275.527008,132.750656 279.819183,133.088470 
	C279.819183,136.083099 279.842682,138.878357 279.813110,141.673065 
	C279.777954,144.998962 281.059265,147.321167 284.681000,147.190125 
	C288.019806,147.069321 289.130585,144.767212 289.094757,141.698013 
	C289.060852,138.791397 289.087463,135.884079 289.087463,132.894409 
	C291.237610,132.798096 292.559601,132.727280 293.882477,132.681427 
	C306.603668,132.240356 315.504578,124.768059 316.849945,113.395210 
	C318.148590,102.416733 311.111664,93.118034 299.015442,89.842651 
	C289.703369,87.321167 280.361816,84.904030 271.083679,82.263649 
	C264.310699,80.336197 260.633362,75.070366 261.482727,69.025551 
	C262.370361,62.708370 266.933746,58.628353 273.987061,58.415962 
	C281.466461,58.190742 288.961182,58.226521 296.443115,58.404625 
	C302.992279,58.560528 306.096863,61.294144 307.313934,67.812599 
	C307.948090,71.209114 309.239075,73.702095 313.121704,72.981537 
	C317.076355,72.247604 317.205963,69.103859 316.755524,65.943993 
	C315.397675,56.418358 307.610565,49.400856 297.970245,49.028324 
	C295.066315,48.916107 292.154388,49.010963 289.074585,49.010963 
	C289.074585,45.148190 289.622131,42.009182 288.885590,39.207806 
	C288.379272,37.282162 286.311127,34.759491 284.549957,34.395401 
	C281.514740,33.767925 279.800690,36.097507 279.824280,39.329948 
	C279.846985,42.438450 279.829193,45.547245 279.829193,48.750378 
	C276.023071,48.949589 272.830597,48.804947 269.754456,49.335262 
	C259.938080,51.027588 252.634995,59.238667 252.022659,68.923645 
	C251.382248,79.052704 257.380554,88.045753 267.249023,90.960854 
	C277.931946,94.116547 288.738129,96.854820 300.221069,100.017181 
z"/>
<path fill="#66C8DB" opacity="1.000000" stroke="none" 
	d="
M212.662598,210.680328 
	C208.982346,211.642456 207.854324,213.877182 207.934998,217.134964 
	C208.049622,221.763855 207.964096,226.397720 207.964096,231.349823 
	C197.263702,231.349823 187.016769,231.349823 176.023819,231.349823 
	C176.023819,226.975281 175.768982,222.694595 176.092102,218.458008 
	C176.448730,213.781708 174.492004,211.232391 170.075806,210.197311 
	C168.788284,209.895538 167.385742,209.571960 166.341141,208.829163 
	C159.406662,203.898193 154.039490,205.964890 149.442169,212.307205 
	C147.880157,214.462112 146.108597,216.465134 144.680069,218.231750 
	C136.581680,210.164719 129.294510,202.905746 121.225441,194.867920 
	C124.258827,192.052567 127.481232,189.005554 130.767792,186.029404 
	C133.366776,183.675858 133.858810,181.073059 132.109177,177.997208 
	C131.288422,176.554337 130.292252,175.081512 129.977097,173.502228 
	C128.188751,164.540878 122.585625,161.736633 114.066895,163.138657 
	C112.299889,163.429489 110.444107,163.180878 108.237671,163.180878 
	C108.237671,152.638794 108.237671,142.407684 108.237671,131.408203 
	C112.314453,131.408203 116.416542,131.351715 120.516296,131.425568 
	C123.972900,131.487839 126.186203,130.131775 127.073608,126.625565 
	C127.642792,124.376671 128.384872,122.126518 129.389023,120.040390 
	C134.110382,110.231819 133.222794,111.013107 126.129417,103.981949 
	C124.611961,102.477798 122.662735,101.409256 121.319771,100.435432 
	C129.509506,92.206810 136.750458,84.931473 145.193130,76.448708 
	C147.226425,78.921967 149.703430,82.013817 152.268555,85.030746 
	C154.414246,87.554375 156.931229,87.731003 159.896561,86.329018 
	C163.647308,84.555702 167.477203,82.908371 171.384308,81.520004 
	C174.674332,80.350906 176.252243,78.404999 176.089508,74.849266 
	C175.922607,71.202812 176.052505,67.542778 176.052505,63.483158 
	C183.716156,63.483158 191.117508,63.483158 197.831055,63.483158 
	C196.569382,75.293297 195.290085,87.268311 193.956924,99.747429 
	C179.400269,99.476906 166.321487,104.607071 156.136856,116.195724 
	C148.711533,124.644676 145.033463,134.631119 144.471359,145.817139 
	C143.417252,166.794312 157.926590,186.813049 178.436844,192.936584 
	C197.554794,198.644424 222.831558,192.246887 235.720810,166.489304 
	C241.419846,169.310913 247.125198,172.135635 253.162643,175.124786 
	C251.295700,178.971283 249.019043,182.736115 253.458710,186.327911 
	C256.684937,188.937988 259.596863,191.936523 263.196289,195.268555 
	C258.965179,199.506897 255.240067,203.202774 251.555801,206.938919 
	C247.936859,210.608826 244.359451,214.319672 239.973389,218.824417 
	C236.669495,215.142700 233.634598,211.836746 230.687790,208.454086 
	C228.099960,205.483505 225.269379,205.123230 221.781021,206.923569 
	C218.986069,208.366043 215.954971,209.350952 212.662598,210.680328 
z"/>
<path fill="#000000" opacity="1.000000" stroke="none" 
	d="
M175.831665,181.376770 
	C161.446976,173.908600 154.090378,161.781250 154.340179,146.530121 
	C154.594604,130.996674 163.467255,118.092529 179.380402,112.020851 
	C181.087723,111.369415 182.826202,110.751610 184.600906,110.333061 
	C193.136475,108.320053 195.824844,109.721611 198.397781,117.771286 
	C203.197906,132.788986 211.067474,145.888763 222.957428,156.296631 
	C226.756729,159.622345 226.697144,162.352051 224.361282,166.447983 
	C216.378113,180.446518 198.383514,188.109283 182.797928,183.739349 
	C180.559692,183.111801 178.376633,182.287460 175.831665,181.376770 
z"/>
<path fill="#32322E" opacity="1.000000" stroke="none" 
	d="
M299.855835,99.896164 
	C288.738129,96.854820 277.931946,94.116547 267.249023,90.960854 
	C257.380554,88.045753 251.382248,79.052704 252.022659,68.923645 
	C252.634995,59.238667 259.938080,51.027588 269.754456,49.335262 
	C272.830597,48.804947 276.023071,48.949589 279.829193,48.750378 
	C279.829193,45.547245 279.846985,42.438450 279.824280,39.329948 
	C279.800690,36.097507 281.514740,33.767925 284.549957,34.395401 
	C286.311127,34.759491 288.379272,37.282162 288.885590,39.207806 
	C289.622131,42.009182 289.074585,45.148190 289.074585,49.010963 
	C292.154388,49.010963 295.066315,48.916107 297.970245,49.028324 
	C307.610565,49.400856 315.397675,56.418358 316.755524,65.943993 
	C317.205963,69.103859 317.076355,72.247604 313.121704,72.981537 
	C309.239075,73.702095 307.948090,71.209114 307.313934,67.812599 
	C306.096863,61.294144 302.992279,58.560528 296.443115,58.404625 
	C288.961182,58.226521 281.466461,58.190742 273.987061,58.415962 
	C266.933746,58.628353 262.370361,62.708370 261.482727,69.025551 
	C260.633362,75.070366 264.310699,80.336197 271.083679,82.263649 
	C280.361816,84.904030 289.703369,87.321167 299.015442,89.842651 
	C311.111664,93.118034 318.148590,102.416733 316.849945,113.395210 
	C315.504578,124.768059 306.603668,132.240356 293.882477,132.681427 
	C292.559601,132.727280 291.237610,132.798096 289.087463,132.894409 
	C289.087463,135.884079 289.060852,138.791397 289.094757,141.698013 
	C289.130585,144.767212 288.019806,147.069321 284.681000,147.190125 
	C281.059265,147.321167 279.777954,144.998962 279.813110,141.673065 
	C279.842682,138.878357 279.819183,136.083099 279.819183,133.088470 
	C275.527008,132.750656 271.710754,132.708542 267.985382,132.105194 
	C259.308685,130.699860 252.590652,123.144730 252.028168,114.640228 
	C251.814514,111.410126 252.675201,108.808174 256.207001,108.415337 
	C259.396942,108.060524 260.819916,110.017776 261.434174,113.135712 
	C262.904449,120.598991 265.937195,123.009308 273.365173,123.054634 
	C280.363556,123.097343 287.362915,123.114113 294.360931,123.047195 
	C300.925781,122.984428 305.456848,119.854912 306.978271,114.501320 
	C308.674530,108.532372 306.434326,103.730408 299.855835,99.896164 
z"/>
</svg>